<svg xmlns="http://www.w3.org/2000/svg" viewBox="0 0 800 800" role="img" aria-labelledby="title desc">
  <title id="title">DCA washed cap sketch</title>
  <desc id="desc">A loose hand-drawn sketch of a washed cap.</desc>
  <rect width="800" height="800" fill="#f4f4f1"/>
  <g fill="none" stroke="#1a1614" stroke-linecap="round" stroke-linejoin="round">
    <path stroke-width="8" d="M173 416c17-173 117-277 257-280 139-4 231 100 244 244l-56 44c-45-117-113-174-197-168-86 7-139 70-165 177Z"/>
    <path stroke-width="6" d="M255 434c91-22 192-20 289 11 33 11 68 25 104 45-78 69-175 88-270 69-91-18-164-63-214-112 31-4 62-8 91-13Z"/>
    <path stroke-width="4" d="M421 256v158M284 291c73 53 159 67 250 34M216 489c90 78 220 102 359 58M360 347h128M390 326v68M427 326v68M464 326v68"/>
  </g>
</svg>
