<svg xmlns="http://www.w3.org/2000/svg" viewBox="0 0 800 800" role="img" aria-labelledby="title desc">
  <title id="title">DCA label sketch</title>
  <desc id="desc">A loose hand-drawn sketch of a stitched name label on workwear.</desc>
  <rect width="800" height="800" fill="#f4f4f1"/>
  <g fill="none" stroke="#1a1614" stroke-linecap="round" stroke-linejoin="round">
    <path stroke-width="6" d="M94 225c132-68 244-58 359-16 100 36 194 29 254-12v386c-87 48-185 63-282 28-118-42-220-34-331 14Z"/>
    <path stroke-width="3" d="M115 258c124-55 226-47 333-8 101 37 190 30 238-6M111 570c115-45 220-53 320-17 96 34 184 24 258-14"/>
    <path stroke-width="8" d="m190 376 423-62 17 160-419 63Z"/>
    <path stroke-width="3" stroke-dasharray="5 11" d="m207 392 389-56M212 520l400-60M207 392l5 128M596 336l16 124"/>
    <path stroke-width="4" d="M255 434h77M255 461h48M372 409l1 78M408 403l2 79M445 398l1 78M482 393l2 77M520 387l1 76"/>
    <path stroke-width="4" d="M130 650c90 33 190 37 288 10M436 665c80 7 153-5 222-40"/>
  </g>
</svg>
