<svg xmlns="http://www.w3.org/2000/svg" viewBox="0 0 800 800" role="img" aria-labelledby="title desc">
  <title id="title">DCA print card sketch</title>
  <desc id="desc">A loose hand-drawn sketch of a folded archive card.</desc>
  <rect width="800" height="800" fill="#f4f4f1"/>
  <g fill="none" stroke="#1a1614" stroke-linecap="round" stroke-linejoin="round">
    <path stroke-width="8" d="m176 204 357-55 108 89-18 374-355 54-106-90Z"/>
    <path stroke-width="5" d="m176 204 108 91 357-57M284 295l-16 371M533 149l-16 361M162 576l106 90M517 510l106 102"/>
    <path stroke-width="4" d="M333 338h162M330 370h118M327 402h180M323 447h226M320 480h177M316 513h215"/>
    <path stroke-width="6" d="m344 424 148-24 4 103-150 23Z"/>
    <path stroke-width="4" d="M199 695c116 26 232 15 348-31M548 278l47 43M552 314l43 39"/>
  </g>
</svg>
