<svg xmlns="http://www.w3.org/2000/svg" viewBox="0 0 800 800" role="img" aria-labelledby="title desc">
  <title id="title">DCA studio equipment sketch</title>
  <desc id="desc">A loose hand-drawn sketch of a sound studio equipment rack.</desc>
  <rect width="800" height="800" fill="#f4f4f1"/>
  <g fill="none" stroke="#1a1614" stroke-linecap="round" stroke-linejoin="round">
    <path stroke-width="8" d="M253 163c83-13 174-10 266 2l12 470c-92 13-184 12-277-2Z"/>
    <path stroke-width="5" d="M276 198c77-7 155-6 233 2l2 58c-78 8-156 7-234-1ZM273 285c80-8 159-6 239 2l1 63c-77 7-158 7-240-2ZM270 379c78-8 161-8 246 1l1 64c-81 8-163 8-246-1ZM267 474c85-8 168-7 251 2l2 65c-84 8-169 7-253-1ZM264 569c87-8 172-7 258 1l2 43c-89 8-173 8-259-1Z"/>
    <path stroke-width="3" d="M296 220h126M296 236h164M293 307h155M291 326h117M290 403h164M288 424h126M285 499h145M284 520h177M282 591h164"/>
    <circle cx="469" cy="232" r="13" stroke-width="4"/><circle cx="493" cy="232" r="11" stroke-width="4"/>
    <circle cx="481" cy="317" r="15" stroke-width="4"/><circle cx="501" cy="317" r="9" stroke-width="4"/>
    <circle cx="483" cy="414" r="20" stroke-width="4"/><circle cx="505" cy="414" r="11" stroke-width="4"/>
    <path stroke-width="4" d="M335 652c-5 37-12 63-29 90M456 651c9 36 17 62 33 89M232 739c35 12 67 14 96 7M491 746c31 5 59 2 85-10"/>
  </g>
</svg>
