<svg xmlns="http://www.w3.org/2000/svg" viewBox="0 0 800 800" role="img" aria-labelledby="title desc">
  <title id="title">DCA work shirt sketch</title>
  <desc id="desc">A loose hand-drawn sketch of a work shirt.</desc>
  <rect width="800" height="800" fill="#f4f4f1"/>
  <g fill="none" stroke="#1a1614" stroke-linecap="round" stroke-linejoin="round">
    <path stroke-width="8" d="m129 326 122-94 92 35 56-41 92 43 139 97-65 118-54-35-6 235-318 2-7-238-57 36Z"/>
    <path stroke-width="5" d="m251 232 42 106 50 51 56-122M293 338l-5 347M343 389l1 297M399 226l-7 112M505 345l-5 340M180 448l112 59M566 449l-166 58M217 503l76-24 3 111-80 12ZM397 479l81 23-2 108-83-12ZM312 411h63M311 431h65M263 624h228"/>
    <circle cx="343" cy="424" r="6" stroke-width="3"/><circle cx="343" cy="466" r="6" stroke-width="3"/><circle cx="343" cy="508" r="6" stroke-width="3"/><circle cx="343" cy="550" r="6" stroke-width="3"/>
  </g>
</svg>
