<svg xmlns="http://www.w3.org/2000/svg" viewBox="0 0 800 800" role="img" aria-labelledby="title desc">
  <title id="title">DCA workwear pair sketch</title>
  <desc id="desc">A loose hand-drawn sketch of two work jackets.</desc>
  <rect width="800" height="800" fill="#f4f4f1"/>
  <g fill="none" stroke="#1a1614" stroke-linecap="round" stroke-linejoin="round">
    <path stroke-width="8" d="M107 329 202 243l79 19 57-43 77 46 65 77-40 95-14 225-249-1-13-225Z"/>
    <path stroke-width="5" d="m202 243 48 98 86 52 79-128M250 341l-5 319M336 393l2 268M178 457l66 24M439 457l-98 24M200 499l53-16 4 83-56 11ZM347 485l58 16-2 89-62-11ZM278 401h61M278 420h62"/>
    <path stroke-width="8" d="m401 316 84-78 71 13 52-36 79 57 51 79-41 87-8 222-228 3-17-219-42-92Z"/>
    <path stroke-width="5" d="m485 238 45 88 78 47 79-101M530 326l-3 334M608 373l1 289M464 454l63 21M696 453l-84 22M480 496l51-15 4 82-53 8ZM620 480l54 15-4 89-54-8ZM553 384h55M552 402h58"/>
    <path stroke-width="4" d="M153 687c112 21 220 18 323-5M420 696c98 14 181 5 250-28"/>
  </g>
</svg>
